<?xml version="1.0" encoding="UTF-8"?>
<!DOCTYPE svg PUBLIC "-//W3C//DTD SVG 1.1//EN" "http://www.w3.org/Graphics/SVG/1.1/DTD/svg11.dtd">
<svg xmlns="http://www.w3.org/2000/svg" version="1.1" width="2048px" height="2048px" style="shape-rendering:geometricPrecision; text-rendering:geometricPrecision; image-rendering:optimizeQuality; fill-rule:evenodd; clip-rule:evenodd" xmlns:xlink="http://www.w3.org/1999/xlink">
<g><path style="opacity:0.994" fill="#2e6abd" d="M 991.5,35.5 C 1268.03,31.0325 1506.7,122.533 1707.5,310C 1887.99,486.853 1988.49,702.019 2009,955.5C 2023.3,1207.9 1953.96,1433.9 1801,1633.5C 1643.85,1829.39 1441.02,1950.56 1192.5,1997C 942.715,2037.24 710.381,1991.24 495.5,1859C 312.86,1741.01 181.36,1580.84 101,1378.5C 26.528,1179.32 15.528,976.654 68,770.5C 137.136,522.806 278.969,328.973 493.5,189C 645.727,93.6027 811.727,42.436 991.5,35.5 Z"/></g>
<g><path style="opacity:1" fill="#fefefe" d="M 972.5,80.5 C 1216.06,71.2996 1432.39,142.466 1621.5,294C 1804.33,447.41 1915.5,642.577 1955,879.5C 1988.69,1122.49 1938.36,1346.15 1804,1550.5C 1667.84,1746.92 1483.68,1875.75 1251.5,1937C 1032.2,1989.5 820.531,1968.17 616.5,1873C 431.575,1782.07 289.741,1646.24 191,1465.5C 97.3526,1285.96 63.3526,1095.62 89,894.5C 122.424,671.122 220.924,482.622 384.5,329C 551.215,178.437 747.215,95.6032 972.5,80.5 Z"/></g>
<g><path style="opacity:1" fill="#ed1348" d="M 995.5,126.5 C 1239.01,123.016 1450.68,202.183 1630.5,364C 1788.26,512.34 1882.1,694.506 1912,910.5C 1937.52,1134.73 1887.86,1340.4 1763,1527.5C 1623.71,1725.31 1435.21,1849.81 1197.5,1901C 969.792,1943.22 756.459,1905.55 557.5,1788C 380.901,1678.38 255.734,1526.21 182,1331.5C 122.156,1164.33 111.489,993.992 150,820.5C 199.379,617.443 304.879,450.61 466.5,320C 621.63,198.887 797.963,134.387 995.5,126.5 Z"/></g>
<g><path style="opacity:1" fill="#fffdfe" d="M 1084.5,184.5 C 1107.19,188.003 1129.85,191.669 1152.5,195.5C 1159.77,216.796 1166.93,238.13 1174,259.5C 1176.69,269.392 1178.85,279.392 1180.5,289.5C 1197.47,261.713 1215.81,234.879 1235.5,209C 1257.49,212.165 1279.49,215.665 1301.5,219.5C 1268.19,260.645 1234.69,301.645 1201,342.5C 1196.02,369.711 1191.85,397.044 1188.5,424.5C 1168.85,421.335 1149.18,418.169 1129.5,415C 1128.57,414.612 1127.91,413.945 1127.5,413C 1132.27,385.882 1136.44,358.715 1140,331.5C 1121.39,282.503 1102.89,233.503 1084.5,184.5 Z"/></g>
<g><path style="opacity:1" fill="#fffefe" d="M 963.5,189.5 C 964.822,189.33 965.989,189.663 967,190.5C 1000.56,259.956 1034.39,329.289 1068.5,398.5C 1047.7,401.422 1026.87,404.089 1006,406.5C 1005.05,406.095 1004.39,405.428 1004,404.5C 998.776,391.052 993.276,377.719 987.5,364.5C 986.333,364.167 985.167,363.833 984,363.5C 957.577,366.511 931.243,369.845 905,373.5C 901.509,388.788 898.343,404.121 895.5,419.5C 875.843,421.61 856.177,423.61 836.5,425.5C 854.489,349.897 872.155,274.231 889.5,198.5C 914.396,196.217 939.062,193.217 963.5,189.5 Z"/></g>
<g><path style="opacity:1" fill="#ed1b4b" d="M 930.5,238.5 C 931.5,238.5 932.5,238.5 933.5,238.5C 935.29,246.706 937.79,254.706 941,262.5C 949.877,282.294 959.043,301.961 968.5,321.5C 950.856,323.914 933.19,326.247 915.5,328.5C 919.111,307.111 923.111,285.778 927.5,264.5C 929.063,255.89 930.063,247.224 930.5,238.5 Z"/></g>
<g><path style="opacity:1" fill="#fefdfe" d="M 1355.5,243.5 C 1401.09,266.631 1446.43,290.298 1491.5,314.5C 1484.83,327.85 1477.66,340.85 1470,353.5C 1443.26,339.547 1416.43,325.713 1389.5,312C 1388.5,311.333 1387.5,311.333 1386.5,312C 1380.63,323.579 1374.63,335.079 1368.5,346.5C 1394.34,360.588 1420.34,374.421 1446.5,388C 1439.53,401.444 1432.2,414.61 1424.5,427.5C 1398.99,413.912 1373.32,400.578 1347.5,387.5C 1340.14,399.722 1333.14,412.222 1326.5,425C 1354.92,440.294 1383.42,455.461 1412,470.5C 1405.93,483.967 1399.27,497.3 1392,510.5C 1345.74,486.623 1299.91,462.123 1254.5,437C 1288.3,372.568 1321.97,308.068 1355.5,243.5 Z"/></g>
<g><path style="opacity:1" fill="#fffefe" d="M 686.5,256.5 C 713.411,254.923 731.911,266.59 742,291.5C 750.199,313.705 745.365,332.705 727.5,348.5C 728,348.833 728.5,349.167 729,349.5C 756.805,339.256 778.472,346.59 794,371.5C 806.136,390.694 806.469,410.027 795,429.5C 783.696,445.059 769.529,457.225 752.5,466C 724.919,481.373 697.419,496.873 670,512.5C 634.293,448.253 598.46,384.086 562.5,320C 596.757,299.43 631.757,280.097 667.5,262C 673.911,259.985 680.244,258.152 686.5,256.5 Z"/></g>
<g><path style="opacity:1" fill="#ed1749" d="M 670.5,308.5 C 678.59,306.695 685.09,309.028 690,315.5C 699.499,327.648 698.332,338.481 686.5,348C 676.082,354.293 665.582,360.459 655,366.5C 647.328,354.494 640.162,342.161 633.5,329.5C 645.733,322.22 658.067,315.22 670.5,308.5 Z"/></g>
<g><path style="opacity:1" fill="#ed1749" d="M 715.5,382.5 C 730.589,381.076 740.089,387.742 744,402.5C 745.047,412.577 741.547,420.744 733.5,427C 722.327,433.421 710.993,439.587 699.5,445.5C 691.58,431.995 683.913,418.328 676.5,404.5C 689.073,396.381 702.073,389.048 715.5,382.5 Z"/></g>
<g><path style="opacity:1" fill="#fffefe" d="M 1584.5,382.5 C 1586.9,382.393 1588.74,383.393 1590,385.5C 1615.33,413.5 1640.67,441.5 1666,469.5C 1688.11,500.833 1684.94,529.333 1656.5,555C 1642.21,567.653 1625.54,573.32 1606.5,572C 1600.71,570.961 1595.21,569.127 1590,566.5C 1577.19,600.612 1564.19,634.612 1551,668.5C 1536.35,651.685 1521.52,635.018 1506.5,618.5C 1519.01,590.505 1531.17,562.505 1543,534.5C 1538.17,529.667 1533.33,524.833 1528.5,520C 1527.5,519.333 1526.5,519.333 1525.5,520C 1505.95,538.721 1485.95,556.887 1465.5,574.5C 1451.31,560.479 1437.65,545.979 1424.5,531C 1478.03,481.634 1531.36,432.134 1584.5,382.5 Z"/></g>
<g><path style="opacity:1" fill="#ed1749" d="M 1594.5,454.5 C 1602.8,462.969 1610.97,471.636 1619,480.5C 1629.92,499.402 1625.09,512.902 1604.5,521C 1598.19,522.337 1592.52,521.004 1587.5,517C 1577.62,507.62 1568.29,497.787 1559.5,487.5C 1571.52,476.816 1583.18,465.816 1594.5,454.5 Z"/></g>
<g><path style="opacity:1" fill="#fefefe" d="M 1004.5,461.5 C 1175.67,460.017 1319.84,521.017 1437,644.5C 1553.76,777.1 1600.42,931.433 1577,1107.5C 1546.34,1282.36 1455.51,1415.53 1304.5,1507C 1168.65,1582.64 1025.32,1601.31 874.5,1563C 709.302,1514.12 589.136,1412.29 514,1257.5C 457.392,1129.99 447.725,998.99 485,864.5C 536.253,701.925 638.753,584.092 792.5,511C 860.197,481.24 930.864,464.74 1004.5,461.5 Z"/></g>
<g><path style="opacity:1" fill="#fffdfe" d="M 398.5,478.5 C 412.196,477.766 425.529,479.599 438.5,484C 439.428,484.388 440.095,485.055 440.5,486C 434.069,502.461 427.735,518.961 421.5,535.5C 420.833,535.833 420.167,536.167 419.5,536.5C 394.475,527.264 377.975,535.264 370,560.5C 368.22,572.603 370.886,583.603 378,593.5C 393.695,611.517 412.528,625.351 434.5,635C 445.922,640.459 457.922,642.459 470.5,641C 488.15,636.011 497.817,624.345 499.5,606C 498.952,601.352 497.785,596.852 496,592.5C 492.423,585.761 488.256,579.427 483.5,573.5C 495.986,560.514 508.653,547.681 521.5,535C 522.5,534.333 523.5,534.333 524.5,535C 554.54,566.948 558.707,602.114 537,640.5C 505.695,694.065 460.861,710.232 402.5,689C 376.79,677.905 355.29,661.405 338,639.5C 316.076,604.045 314.743,567.711 334,530.5C 345.276,509.224 361.776,493.391 383.5,483C 388.577,481.32 393.577,479.82 398.5,478.5 Z"/></g>
<g><path style="opacity:1" fill="#306abd" d="M 1219.5,544.5 C 1254.85,559.087 1288.02,577.42 1319,599.5C 1317.73,633.887 1315.4,668.221 1312,702.5C 1280.89,649.943 1250.06,597.276 1219.5,544.5 Z"/></g>
<g><path style="opacity:1" fill="#fffefe" d="M 1774.5,631.5 C 1775.75,631.577 1776.58,632.244 1777,633.5C 1784.5,656.667 1792,679.833 1799.5,703C 1770.86,731.645 1742.19,760.312 1713.5,789C 1701.07,800.445 1688.4,811.445 1675.5,822C 1720.19,806.434 1765.53,791.1 1811.5,776C 1815.11,774.85 1818.78,774.017 1822.5,773.5C 1827.96,791.215 1833.63,808.882 1839.5,826.5C 1769.85,849.16 1700.19,871.826 1630.5,894.5C 1621.54,870.444 1613.7,846.111 1607,821.5C 1639.53,788.639 1672.36,756.139 1705.5,724C 1713.87,717.489 1722.21,710.989 1730.5,704.5C 1682.02,720.713 1633.19,736.713 1584,752.5C 1578.19,735.272 1572.69,717.939 1567.5,700.5C 1567.83,699.833 1568.17,699.167 1568.5,698.5C 1637.38,676.456 1706.04,654.122 1774.5,631.5 Z"/></g>
<g><path style="opacity:1" fill="#fffefe" d="M 257.5,681.5 C 270.836,686.224 284.17,691.057 297.5,696C 298.91,696.368 299.91,697.201 300.5,698.5C 290.26,727.055 279.927,755.555 269.5,784C 283.833,789.5 298.167,795 312.5,800.5C 322.927,772.388 333.26,744.222 343.5,716C 357.45,720.371 371.45,724.871 385.5,729.5C 376.146,757.726 366.48,785.893 356.5,814C 356.82,815.653 357.82,816.653 359.5,817C 384.575,825.576 409.241,834.909 433.5,845C 427.025,863.427 420.358,881.76 413.5,900C 344.246,876.08 275.246,851.247 206.5,825.5C 223.905,777.616 240.905,729.616 257.5,681.5 Z"/></g>
<g><path style="opacity:1" fill="#2f6abd" d="M 1312.5,705.5 C 1350.23,769.273 1387.73,833.273 1425,897.5C 1419.94,978.26 1413.61,1058.93 1406,1139.5C 1368.33,1075.17 1330.67,1010.83 1293,946.5C 1298.27,866.076 1304.77,785.743 1312.5,705.5 Z"/></g>
<g><path style="opacity:1" fill="#2f6abd" d="M 1441.5,721.5 C 1497.69,799.204 1529.52,886.204 1537,982.5C 1539.51,1016.28 1538.51,1049.94 1534,1083.5C 1498.41,1023.33 1463.08,962.998 1428,902.5C 1427.33,897.167 1427.33,891.833 1428,886.5C 1432.97,831.531 1437.47,776.531 1441.5,721.5 Z"/></g>
<g><path style="opacity:1" fill="#2e6abd" d="M 991.5,505.5 C 1053.09,502.658 1113.42,509.824 1172.5,527C 1179.47,529.602 1186.47,532.102 1193.5,534.5C 1193.83,536.5 1194.17,538.5 1194.5,540.5C 1188.45,609.816 1182.95,679.15 1178,748.5C 1215.33,813.167 1252.67,877.833 1290,942.5C 1290.67,947.167 1290.67,951.833 1290,956.5C 1283.72,1032.18 1277.39,1107.85 1271,1183.5C 1233,1118.83 1195,1054.17 1157,989.5C 1150.06,1069.17 1143.06,1148.83 1136,1228.5C 1098.5,1163.5 1060.5,1098.84 1022,1034.5C 1014.89,1113.81 1007.89,1193.14 1001,1272.5C 962.667,1207.17 924.333,1141.83 886,1076.5C 879.041,1156.47 872.374,1236.47 866,1316.5C 828.252,1251.34 790.252,1186.34 752,1121.5C 744.25,1200.75 737.25,1280.08 731,1359.5C 692.934,1295.09 655.268,1230.43 618,1165.5C 623.614,1085.13 629.947,1004.8 637,924.5C 675.252,989.336 713.252,1054.34 751,1119.5C 758.276,1039.86 765.276,960.191 772,880.5C 810,945.167 848,1009.83 886,1074.5C 893.365,995.215 900.365,915.882 907,836.5C 945.167,901.5 983.333,966.5 1021.5,1031.5C 1028.59,951.858 1035.42,872.192 1042,792.5C 1080.33,857.833 1118.67,923.167 1157,988.5C 1163.22,913.158 1169.56,837.824 1176,762.5C 1176.67,756.833 1176.67,751.167 1176,745.5C 1138.33,680.833 1100.67,616.167 1063,551.5C 1055.49,631.093 1048.49,710.76 1042,790.5C 1003.75,725.664 965.748,660.664 928,595.5C 920.58,675.019 913.58,754.686 907,834.5C 868.667,769.5 830.333,704.5 792,639.5C 784.841,719.072 778.175,798.738 772,878.5C 734.024,813.031 695.857,747.698 657.5,682.5C 650.5,762.499 643.5,842.499 636.5,922.5C 610.837,878.509 585.171,834.509 559.5,790.5C 631.752,652.503 743.085,562.67 893.5,521C 925.846,512.886 958.512,507.719 991.5,505.5 Z"/></g>
<g><path style="opacity:1" fill="#2f6abd" d="M 506.5,976.5 C 543.478,1038.44 579.978,1100.78 616,1163.5C 611.891,1216.81 607.558,1270.14 603,1323.5C 537.617,1231.34 505.117,1128.51 505.5,1015C 505.602,1002.15 505.935,989.322 506.5,976.5 Z"/></g>
<g><path style="opacity:1" fill="#2f6abd" d="M 1406.5,1141.5 C 1430.39,1182.27 1454.06,1223.27 1477.5,1264.5C 1407.2,1392.02 1302.2,1476.85 1162.5,1519C 1057.47,1547.54 953.469,1544.38 850.5,1509.5C 855.227,1445.78 860.56,1382.11 866.5,1318.5C 904.5,1383.5 942.5,1448.5 980.5,1513.5C 987.284,1433.75 994.451,1354.08 1002,1274.5C 1040,1339.83 1078,1405.17 1116,1470.5C 1122.39,1390.76 1129.39,1311.1 1137,1231.5C 1175,1296.17 1213,1360.83 1251,1425.5C 1257.62,1345.78 1264.62,1266.12 1272,1186.5C 1310.25,1251.34 1348.25,1316.34 1386,1381.5C 1392.94,1301.5 1399.78,1221.5 1406.5,1141.5 Z"/></g>
<g><path style="opacity:1" fill="#fffdfe" d="M 418.5,1200.5 C 420.144,1200.29 421.644,1200.62 423,1201.5C 436.706,1227.75 450.539,1253.91 464.5,1280C 436.5,1307.33 408.5,1334.67 380.5,1362C 371.285,1369.1 362.285,1376.44 353.5,1384C 353.833,1384.5 354.167,1385 354.5,1385.5C 369.163,1380.39 384.163,1376.56 399.5,1374C 433.212,1368.38 466.879,1362.55 500.5,1356.5C 501.833,1356.83 503.167,1357.17 504.5,1357.5C 517.706,1383.41 531.039,1409.25 544.5,1435C 479.333,1468.83 414.167,1502.67 349,1536.5C 339.733,1519.3 331.067,1501.97 323,1484.5C 357.579,1466.46 392.079,1448.29 426.5,1430C 443.936,1421.28 461.602,1413.11 479.5,1405.5C 479.167,1403.83 478.167,1402.83 476.5,1402.5C 462.904,1405.98 449.237,1409.14 435.5,1412C 389.616,1420.24 343.782,1428.74 298,1437.5C 290.79,1424.92 283.957,1412.08 277.5,1399C 313.535,1362.46 349.868,1326.13 386.5,1290C 393.946,1284.19 401.113,1278.02 408,1271.5C 408.483,1270.55 408.649,1269.55 408.5,1268.5C 357.001,1296.5 305.168,1324.17 253,1351.5C 244.167,1335.17 235.333,1318.83 226.5,1302.5C 290.527,1268.49 354.527,1234.49 418.5,1200.5 Z"/></g>
<g><path style="opacity:1" fill="#fffefe" d="M 1633.5,1201.5 C 1698.43,1236.3 1763.1,1271.63 1827.5,1307.5C 1815.63,1329.41 1803.63,1351.25 1791.5,1373C 1747.84,1372.23 1704.17,1371.23 1660.5,1370C 1647.48,1369.38 1634.65,1367.55 1622,1364.5C 1665.99,1388.2 1710.66,1412.53 1756,1437.5C 1747.93,1454.3 1739.26,1470.97 1730,1487.5C 1665.42,1452.46 1600.92,1417.29 1536.5,1382C 1548.5,1360.33 1560.5,1338.67 1572.5,1317C 1616.84,1317.53 1661.17,1318.53 1705.5,1320C 1718.2,1321.32 1730.87,1322.82 1743.5,1324.5C 1743.5,1323.5 1743.5,1322.5 1743.5,1321.5C 1732.08,1317.74 1721.08,1312.91 1710.5,1307C 1676.17,1288.17 1641.83,1269.33 1607.5,1250.5C 1616.45,1234.27 1625.11,1217.94 1633.5,1201.5 Z"/></g>
<g><path style="opacity:1" fill="#316bbd" d="M 730.5,1361.5 C 753.559,1399.94 776.392,1438.61 799,1477.5C 801.608,1481.71 803.608,1486.04 805,1490.5C 776.897,1477.46 750.23,1462.12 725,1444.5C 724.333,1439.17 724.333,1433.83 725,1428.5C 727.33,1406.2 729.164,1383.87 730.5,1361.5 Z"/></g>
<g><path style="opacity:1" fill="#fefefe" d="M 1509.5,1417.5 C 1520.37,1427.66 1530.7,1438.5 1540.5,1450C 1517.83,1471.33 1495.17,1492.67 1472.5,1514C 1481.67,1523.83 1490.83,1533.67 1500,1543.5C 1521.65,1524.02 1543.15,1504.35 1564.5,1484.5C 1574.84,1494.84 1584.84,1505.51 1594.5,1516.5C 1574.15,1537.02 1553.31,1557.02 1532,1576.5C 1531.33,1577.17 1531.33,1577.83 1532,1578.5C 1541.35,1588.68 1550.85,1598.68 1560.5,1608.5C 1584.16,1587.34 1607.66,1566.01 1631,1544.5C 1642.34,1554.34 1652.84,1565 1662.5,1576.5C 1624.5,1611.83 1586.5,1647.17 1548.5,1682.5C 1497.79,1629.46 1447.79,1575.8 1398.5,1521.5C 1435.52,1486.81 1472.52,1452.14 1509.5,1417.5 Z"/></g>
<g><path style="opacity:1" fill="#fffefe" d="M 568.5,1461.5 C 585.194,1472.52 601.194,1484.52 616.5,1497.5C 586.192,1537.64 555.692,1577.64 525,1617.5C 515.003,1640.01 521.17,1656.51 543.5,1667C 557.1,1671.6 569.1,1668.93 579.5,1659C 610.721,1619.95 641.721,1580.79 672.5,1541.5C 687.833,1553.17 703.167,1564.83 718.5,1576.5C 689.758,1612.99 661.258,1649.65 633,1686.5C 599.383,1726.14 560.55,1731.98 516.5,1704C 499.667,1692.5 485.5,1678.33 474,1661.5C 459.129,1633.42 460.463,1606.09 478,1579.5C 507.999,1540.01 538.166,1500.67 568.5,1461.5 Z"/></g>
<g><path style="opacity:1" fill="#fefbfc" d="M 630.5,1507.5 C 640.625,1515.12 650.625,1522.95 660.5,1531C 643,1543.17 625.5,1555.33 608,1567.5C 614.785,1547.32 622.285,1527.32 630.5,1507.5 Z"/></g>
<g><path style="opacity:1" fill="#fefefe" d="M 1357.5,1542.5 C 1358.68,1542.28 1359.68,1542.61 1360.5,1543.5C 1394.71,1607.41 1429.04,1671.25 1463.5,1735C 1446.16,1745.34 1428.49,1755.17 1410.5,1764.5C 1396.41,1739.33 1382.58,1713.99 1369,1688.5C 1367.9,1686.62 1366.56,1684.95 1365,1683.5C 1344.19,1694.24 1323.52,1705.24 1303,1716.5C 1302.33,1717.5 1302.33,1718.5 1303,1719.5C 1317.22,1745.45 1331.06,1771.61 1344.5,1798C 1327.68,1808.25 1310.34,1817.75 1292.5,1826.5C 1257.25,1762.72 1222.58,1698.56 1188.5,1634C 1205.32,1623.75 1222.66,1614.25 1240.5,1605.5C 1241.89,1606.61 1243.06,1607.94 1244,1609.5C 1255.58,1632.34 1267.92,1654.68 1281,1676.5C 1302.39,1665.56 1323.56,1654.22 1344.5,1642.5C 1331.83,1618.5 1319.17,1594.5 1306.5,1570.5C 1323.4,1560.88 1340.4,1551.55 1357.5,1542.5 Z"/></g>
<g><path style="opacity:1" fill="#fffefe" d="M 761.5,1595.5 C 783.178,1601.89 804.845,1608.39 826.5,1615C 829.62,1615.59 832.287,1616.92 834.5,1619C 842.044,1662.76 849.211,1706.6 856,1750.5C 857.761,1762.77 858.594,1775.11 858.5,1787.5C 859.5,1787.5 860.5,1787.5 861.5,1787.5C 862.554,1776.95 864.721,1766.62 868,1756.5C 879.949,1717.32 892.282,1678.32 905,1639.5C 922.629,1645.21 940.129,1651.21 957.5,1657.5C 935.425,1726.72 913.758,1796.06 892.5,1865.5C 868.069,1859.08 843.902,1851.75 820,1843.5C 812.775,1800.48 805.442,1757.48 798,1714.5C 796.689,1700.87 796.189,1687.2 796.5,1673.5C 795.5,1673.5 794.5,1673.5 793.5,1673.5C 791.751,1684.99 789.251,1696.32 786,1707.5C 773.798,1745.11 761.798,1782.77 750,1820.5C 749.586,1820.96 749.086,1821.29 748.5,1821.5C 731.214,1815.96 713.881,1810.63 696.5,1805.5C 718.167,1735.5 739.833,1665.5 761.5,1595.5 Z"/></g>
<g><path style="opacity:1" fill="#fffefe" d="M 1137.5,1780.5 C 1156.17,1780.5 1174.83,1780.5 1193.5,1780.5C 1193.5,1781.83 1193.5,1783.17 1193.5,1784.5C 1191.28,1829.89 1167.95,1857.39 1123.5,1867C 1059.77,1880.23 1016.93,1856.39 995,1795.5C 985.056,1766.41 984.056,1737.08 992,1707.5C 1006.22,1673.96 1031.06,1652.46 1066.5,1643C 1095.3,1635.09 1121.96,1639.43 1146.5,1656C 1156.49,1664.5 1164.15,1674.67 1169.5,1686.5C 1167.54,1688.48 1165.21,1689.98 1162.5,1691C 1147.9,1697.31 1133.4,1703.81 1119,1710.5C 1107.69,1685.62 1089.85,1679.45 1065.5,1692C 1051.7,1704.73 1046.2,1720.56 1049,1739.5C 1051.38,1763.62 1058.38,1786.29 1070,1807.5C 1084.31,1826.14 1101.81,1829.64 1122.5,1818C 1126.76,1814.64 1129.93,1810.47 1132,1805.5C 1134.82,1797.24 1136.65,1788.9 1137.5,1780.5 Z"/></g>
<g><path style="opacity:1" fill="#f68fa9" d="M 1137.5,1780.5 C 1156.33,1779.5 1175.33,1779.17 1194.5,1779.5C 1194.78,1781.41 1194.45,1783.08 1193.5,1784.5C 1193.5,1783.17 1193.5,1781.83 1193.5,1780.5C 1174.83,1780.5 1156.17,1780.5 1137.5,1780.5 Z"/></g>
</svg>
